<svg xmlns="http://www.w3.org/2000/svg" xmlns:xlink="http://www.w3.org/1999/xlink" width="1080" zoomAndPan="magnify" viewBox="0 0 810 675.000002" height="900" preserveAspectRatio="xMidYMid meet" version="1.0"><defs><clipPath id="fb6d7a7f71"><path d="M 68 0 L 742 0 L 742 674 L 68 674 Z M 68 0 " clip-rule="nonzero"/></clipPath><clipPath id="9031a51295"><path d="M 470.226562 271.773438 C 470.226562 277.777344 465.355469 282.644531 459.355469 282.644531 C 453.355469 282.644531 448.484375 277.777344 448.484375 271.773438 C 448.484375 265.773438 453.355469 260.902344 459.355469 260.902344 C 465.355469 260.902344 470.226562 265.773438 470.226562 271.773438 Z M 350.644531 260.902344 C 344.644531 260.902344 339.773438 265.773438 339.773438 271.773438 C 339.773438 277.777344 344.644531 282.644531 350.644531 282.644531 C 356.644531 282.644531 361.515625 277.777344 361.515625 271.773438 C 361.515625 265.773438 356.644531 260.902344 350.644531 260.902344 Z M 415.871094 290.953125 L 415.871094 271.773438 L 394.128906 271.773438 L 394.128906 293.515625 C 394.128906 295.203125 394.519531 296.875 395.269531 298.375 L 401.28125 310.386719 L 389.269531 316.398438 L 399 335.847656 L 411.011719 329.835938 C 416.207031 327.238281 420.078125 322.78125 421.914062 317.269531 C 423.753906 311.757812 423.328125 305.855469 420.742188 300.667969 Z M 568.066406 206.550781 L 568.066406 239.445312 C 581.1875 249.378906 589.808594 264.96875 589.808594 282.644531 C 589.808594 312.617188 565.421875 337 535.453125 337 L 523.167969 337 C 517.796875 371.429688 496.402344 401.292969 464.484375 417.25 L 459.332031 419.816406 L 459.332031 436.566406 C 493.152344 443.949219 600.679688 481.726562 600.679688 663.128906 L 600.679688 674 L 209.320312 674 L 209.320312 663.128906 C 209.320312 481.726562 316.835938 443.949219 350.644531 436.566406 L 350.644531 423.96875 L 307.160156 423.96875 C 271.1875 423.96875 241.933594 394.714844 241.933594 358.742188 L 241.933594 325.847656 C 228.8125 315.910156 220.191406 300.320312 220.191406 282.644531 C 220.191406 264.96875 228.8125 249.371094 241.933594 239.445312 L 241.933594 206.550781 C 241.933594 116.636719 315.085938 43.484375 405 43.484375 C 494.914062 43.484375 568.066406 116.636719 568.066406 206.550781 Z M 263.675781 229.390625 C 267.1875 228.671875 270.832031 228.289062 274.546875 228.289062 L 285.417969 228.289062 L 285.417969 206.550781 C 285.417969 140.617188 339.066406 86.96875 405 86.96875 C 470.933594 86.96875 524.582031 140.617188 524.582031 206.550781 L 524.582031 228.289062 L 535.453125 228.289062 C 539.167969 228.289062 542.8125 228.671875 546.324219 229.390625 L 546.324219 206.550781 C 546.324219 128.625 482.921875 65.226562 405 65.226562 C 327.078125 65.226562 263.675781 128.625 263.675781 206.550781 Z M 393.792969 167.445312 L 390.238281 179.589844 C 387.519531 188.90625 383.433594 197.558594 378.277344 205.429688 C 395.78125 213.167969 414.707031 217.417969 433.882812 217.417969 L 497.828125 217.417969 C 489.488281 201.796875 474.53125 190.230469 456.757812 186.675781 L 446.351562 184.601562 L 450.625 163.28125 L 461.027344 165.359375 C 476.085938 168.378906 489.683594 175.621094 500.578125 185.761719 C 491 141.769531 451.808594 108.710938 405 108.710938 C 351.058594 108.710938 307.160156 152.597656 307.160156 206.550781 L 307.160156 227.386719 C 336.207031 223.128906 360.984375 202.234375 369.375 173.5 L 372.929688 161.359375 Z M 241.933594 282.644531 C 241.933594 300.625 256.566406 315.257812 274.546875 315.257812 L 285.410156 315.257812 L 285.417969 250.03125 L 274.546875 250.03125 C 256.566406 250.03125 241.933594 264.664062 241.933594 282.644531 Z M 307.160156 402.226562 L 322.96875 402.226562 C 303.519531 385.429688 290.875 362.308594 286.886719 337 L 274.546875 337 C 270.832031 337 267.1875 336.621094 263.675781 335.902344 L 263.675781 358.742188 C 263.675781 382.722656 283.179688 402.226562 307.160156 402.226562 Z M 394.128906 402.226562 C 400.117188 402.226562 405 397.355469 405 391.355469 C 405 385.355469 400.117188 380.484375 394.128906 380.484375 L 361.515625 380.484375 C 355.527344 380.484375 350.644531 385.355469 350.644531 391.355469 L 350.644531 402.226562 Z M 231.195312 652.257812 L 307.433594 652.257812 C 300.539062 643.148438 296.289062 631.929688 296.289062 619.648438 L 296.289062 532.679688 C 296.289062 502.707031 320.671875 478.324219 350.644531 478.324219 L 386.878906 478.324219 L 358.503906 457.039062 C 337.023438 460.386719 235.421875 485.074219 231.195312 652.257812 Z M 491.96875 532.679688 C 491.96875 514.699219 477.335938 500.066406 459.355469 500.066406 L 350.644531 500.066406 C 332.664062 500.066406 318.03125 514.699219 318.03125 532.679688 L 318.03125 608.777344 L 491.96875 608.777344 Z M 459.355469 652.257812 C 473.507812 652.257812 485.46875 643.140625 489.96875 630.515625 L 320.03125 630.515625 C 324.53125 643.140625 336.492188 652.257812 350.644531 652.257812 Z M 451.484375 457.050781 L 423.121094 478.324219 L 459.355469 478.324219 C 489.328125 478.324219 513.710938 502.707031 513.710938 532.679688 L 513.710938 619.648438 C 513.710938 631.929688 509.460938 643.148438 502.554688 652.257812 L 578.792969 652.257812 C 574.566406 485.152344 473.042969 460.410156 451.484375 457.050781 Z M 502.839844 320.007812 L 502.839844 239.160156 L 433.882812 239.160156 C 409.523438 239.160156 385.398438 233.476562 363.558594 222.746094 C 348.285156 237.25 328.632812 246.988281 307.160156 249.425781 L 307.160156 250.03125 L 307.148438 320.007812 C 307.148438 342.597656 315.921875 363.863281 331.121094 379.832031 C 335.785156 367.539062 347.601562 358.742188 361.515625 358.742188 L 394.128906 358.742188 C 412.109375 358.742188 426.742188 373.375 426.742188 391.355469 C 426.742188 409.335938 412.109375 423.96875 394.128906 423.96875 L 372.386719 423.96875 L 372.386719 440.273438 L 405 464.734375 L 437.632812 440.265625 L 437.613281 419.816406 C 437.613281 411.511719 442.222656 404.0625 449.636719 400.367188 L 454.777344 397.800781 C 484.433594 382.972656 502.851562 353.164062 502.839844 320.007812 Z M 568.066406 282.644531 C 568.066406 264.664062 553.433594 250.03125 535.453125 250.03125 L 524.582031 250.03125 L 524.582031 315.257812 L 535.453125 315.257812 C 553.433594 315.257812 568.066406 300.625 568.066406 282.644531 Z M 437.613281 554.421875 C 437.613281 572.402344 422.980469 587.035156 405 587.035156 C 387.019531 587.035156 372.386719 572.402344 372.386719 554.421875 C 372.386719 536.441406 387.019531 521.808594 405 521.808594 C 422.980469 521.808594 437.613281 536.441406 437.613281 554.421875 Z M 415.871094 554.421875 C 415.871094 548.417969 410.988281 543.550781 405 543.550781 C 399.011719 543.550781 394.128906 548.417969 394.128906 554.421875 C 394.128906 560.421875 399.011719 565.292969 405 565.292969 C 410.988281 565.292969 415.871094 560.421875 415.871094 554.421875 Z M 80.195312 473.269531 C 72.324219 465.417969 68 454.972656 68 443.839844 C 68 420.902344 86.664062 402.226562 109.625 402.226562 C 118.167969 402.226562 126.332031 404.78125 133.226562 409.554688 C 140.117188 404.78125 148.269531 402.226562 156.816406 402.226562 C 179.773438 402.226562 198.449219 420.902344 198.449219 443.839844 C 198.449219 454.960938 194.125 465.410156 186.253906 473.269531 L 159.46875 500.066406 C 152.46875 507.078125 143.152344 510.9375 133.226562 510.9375 C 123.300781 510.9375 113.984375 507.078125 106.972656 500.066406 Z M 89.742188 443.839844 C 89.742188 449.070312 91.859375 454.191406 95.558594 457.898438 L 122.355469 484.695312 C 128.160156 490.511719 138.292969 490.511719 144.097656 484.695312 L 170.894531 457.898438 C 174.589844 454.191406 176.710938 449.082031 176.710938 443.839844 C 176.710938 432.882812 167.796875 423.96875 156.824219 423.96875 C 151.519531 423.96875 146.53125 426.035156 142.769531 429.785156 L 133.226562 439.328125 L 123.667969 429.773438 C 119.917969 426.035156 114.929688 423.96875 109.636719 423.96875 C 98.667969 423.96875 89.742188 432.882812 89.742188 443.839844 Z M 241.933594 86.96875 C 241.933594 134.917969 202.917969 173.9375 154.96875 173.9375 C 107.015625 173.9375 68 134.917969 68 86.96875 C 68 39.015625 107.015625 0 154.96875 0 C 202.917969 0 241.933594 39.015625 241.933594 86.96875 Z M 154.96875 86.96875 C 160.957031 86.96875 165.839844 82.097656 165.839844 76.097656 C 165.839844 70.097656 160.957031 65.226562 154.96875 65.226562 C 148.976562 65.226562 144.097656 70.097656 144.097656 76.097656 C 144.097656 82.097656 148.976562 86.96875 154.96875 86.96875 Z M 154.96875 152.195312 C 162.597656 152.195312 169.894531 150.800781 176.710938 148.390625 L 176.710938 130.453125 C 176.710938 118.460938 166.957031 108.710938 154.96875 108.710938 C 142.976562 108.710938 133.226562 118.460938 133.226562 130.453125 L 133.226562 148.390625 C 140.042969 150.800781 147.335938 152.195312 154.96875 152.195312 Z M 220.191406 86.96875 C 220.191406 50.996094 190.9375 21.742188 154.96875 21.742188 C 118.996094 21.742188 89.742188 50.996094 89.742188 86.96875 C 89.742188 106.21875 98.175781 123.496094 111.484375 135.453125 L 111.484375 130.453125 C 111.484375 116.199219 118.460938 103.65625 129.082031 95.71875 C 124.917969 90.238281 122.355469 83.488281 122.355469 76.097656 C 122.355469 58.117188 136.988281 43.484375 154.96875 43.484375 C 172.949219 43.484375 187.582031 58.117188 187.582031 76.097656 C 187.582031 83.488281 185.015625 90.238281 180.851562 95.71875 C 191.472656 103.65625 198.449219 116.199219 198.449219 130.453125 L 198.449219 135.453125 C 211.757812 123.496094 220.191406 106.21875 220.191406 86.96875 Z M 742 413.097656 L 742 543.550781 C 742 561.53125 727.367188 576.164062 709.386719 576.164062 L 644.160156 576.164062 C 626.179688 576.164062 611.546875 561.53125 611.546875 543.550781 L 611.546875 413.097656 C 611.546875 395.117188 626.179688 380.484375 644.160156 380.484375 L 709.386719 380.484375 C 727.367188 380.484375 742 395.117188 742 413.097656 Z M 633.289062 413.097656 L 633.289062 423.96875 L 720.257812 423.96875 L 720.257812 413.097656 C 720.257812 407.097656 715.378906 402.226562 709.386719 402.226562 L 644.160156 402.226562 C 638.171875 402.226562 633.289062 407.097656 633.289062 413.097656 Z M 633.289062 445.710938 L 633.289062 510.9375 L 720.257812 510.9375 L 720.257812 445.710938 Z M 720.257812 543.550781 L 720.257812 532.679688 L 633.289062 532.679688 L 633.289062 543.550781 C 633.289062 549.550781 638.171875 554.421875 644.160156 554.421875 L 709.386719 554.421875 C 715.378906 554.421875 720.257812 549.550781 720.257812 543.550781 Z M 742 86.96875 C 742 134.917969 702.984375 173.9375 655.03125 173.9375 C 607.082031 173.9375 568.066406 134.917969 568.066406 86.96875 C 568.066406 39.015625 607.082031 0 655.03125 0 C 702.984375 0 742 39.015625 742 86.96875 Z M 655.03125 21.742188 C 652.988281 21.742188 650.96875 21.863281 648.964844 22.046875 L 655.933594 29.015625 C 662.273438 35.351562 665.902344 44.125 665.902344 53.070312 L 665.902344 59.410156 C 665.902344 64.703125 669.285156 69.390625 674.308594 71.0625 C 679.535156 72.824219 685.351562 70.824219 688.40625 66.226562 L 693.460938 58.636719 C 696.800781 53.625 701.375 49.777344 706.582031 47.167969 C 694.65625 31.734375 676.015625 21.742188 655.03125 21.742188 Z M 655.03125 152.195312 L 655.03125 146.453125 C 655.03125 144.78125 654.628906 143.09375 653.890625 141.605469 L 649.347656 132.507812 C 648.054688 129.917969 645.8125 127.972656 643.054688 127.050781 L 633.855469 123.984375 C 620.507812 119.527344 611.546875 107.101562 611.546875 93.042969 L 611.546875 79.945312 C 611.546875 75.476562 608.863281 71.507812 604.710938 69.847656 L 593.546875 65.378906 C 591.164062 72.152344 589.808594 79.402344 589.808594 86.96875 C 589.808594 122.941406 619.0625 152.195312 655.03125 152.195312 Z M 720.257812 86.96875 C 720.257812 79.75 719.03125 72.824219 716.855469 66.335938 C 714.746094 67.257812 712.878906 68.703125 711.5625 70.695312 L 706.507812 78.28125 C 700.082031 87.925781 689.296875 93.425781 678.144531 93.425781 C 674.566406 93.425781 670.957031 92.859375 667.4375 91.6875 C 653.511719 87.042969 644.160156 74.0625 644.160156 59.410156 L 644.160156 53.070312 C 644.160156 49.84375 642.847656 46.679688 640.5625 44.386719 L 625.203125 29.027344 C 617.050781 33.242188 609.886719 39.113281 604.179688 46.210938 L 612.789062 49.660156 C 625.246094 54.648438 633.289062 66.53125 633.289062 79.945312 L 633.289062 93.035156 C 633.289062 97.71875 636.28125 101.871094 640.726562 103.351562 L 649.921875 106.425781 C 658.195312 109.175781 664.882812 114.992188 668.785156 122.777344 L 673.328125 131.875 C 675.589844 136.375 676.773438 141.421875 676.773438 146.453125 L 676.773438 148.390625 C 702.070312 139.410156 720.257812 115.308594 720.257812 86.96875 Z M 655.03125 195.679688 L 655.03125 250.03125 L 611.546875 250.03125 L 611.546875 271.773438 L 676.773438 271.773438 L 676.773438 195.679688 Z M 198.449219 250.03125 L 165.839844 250.03125 L 165.839844 195.679688 L 144.097656 195.679688 L 144.097656 271.773438 L 198.449219 271.773438 Z M 122.355469 380.484375 L 144.097656 380.484375 L 144.097656 315.257812 L 198.449219 315.257812 L 198.449219 293.515625 L 122.355469 293.515625 Z M 611.546875 315.257812 L 665.902344 315.257812 L 665.902344 358.742188 L 687.644531 358.742188 L 687.644531 293.515625 L 611.546875 293.515625 Z M 611.546875 315.257812 " clip-rule="nonzero"/></clipPath><linearGradient x1="31" gradientTransform="matrix(10.870991, 0, 0, 10.870991, 67.999259, 0.0000199704)" y1="62" x2="31" gradientUnits="userSpaceOnUse" y2="0" id="4d7f30b2da"><stop stop-opacity="1" stop-color="rgb(62.399292%, 18.399048%, 99.998474%)" offset="0"/><stop stop-opacity="1" stop-color="rgb(62.171936%, 18.597412%, 99.931335%)" offset="0.00390625"/><stop stop-opacity="1" stop-color="rgb(61.94458%, 18.797302%, 99.864197%)" offset="0.0078125"/><stop stop-opacity="1" stop-color="rgb(61.717224%, 18.995667%, 99.795532%)" offset="0.0117188"/><stop stop-opacity="1" stop-color="rgb(61.491394%, 19.195557%, 99.728394%)" offset="0.015625"/><stop stop-opacity="1" stop-color="rgb(61.264038%, 19.393921%, 99.661255%)" offset="0.0195312"/><stop stop-opacity="1" stop-color="rgb(61.038208%, 19.593811%, 99.594116%)" offset="0.0234375"/><stop stop-opacity="1" stop-color="rgb(60.810852%, 19.793701%, 99.525452%)" offset="0.0273438"/><stop stop-opacity="1" stop-color="rgb(60.583496%, 19.993591%, 99.458313%)" offset="0.03125"/><stop stop-opacity="1" stop-color="rgb(60.35614%, 20.191956%, 99.391174%)" offset="0.0351562"/><stop stop-opacity="1" stop-color="rgb(60.13031%, 20.391846%, 99.324036%)" offset="0.0390625"/><stop stop-opacity="1" stop-color="rgb(59.902954%, 20.59021%, 99.255371%)" offset="0.0429687"/><stop stop-opacity="1" stop-color="rgb(59.675598%, 20.7901%, 99.188232%)" offset="0.046875"/><stop stop-opacity="1" stop-color="rgb(59.448242%, 20.988464%, 99.119568%)" offset="0.0507813"/><stop stop-opacity="1" stop-color="rgb(59.222412%, 21.188354%, 99.052429%)" offset="0.0546875"/><stop stop-opacity="1" stop-color="rgb(58.995056%, 21.386719%, 98.985291%)" offset="0.0585938"/><stop stop-opacity="1" stop-color="rgb(58.7677%, 21.586609%, 98.918152%)" offset="0.0625"/><stop stop-opacity="1" stop-color="rgb(58.540344%, 21.784973%, 98.849487%)" offset="0.0664062"/><stop stop-opacity="1" stop-color="rgb(58.314514%, 21.984863%, 98.782349%)" offset="0.0703125"/><stop stop-opacity="1" stop-color="rgb(58.087158%, 22.183228%, 98.71521%)" offset="0.0742188"/><stop stop-opacity="1" stop-color="rgb(57.859802%, 22.383118%, 98.648071%)" offset="0.078125"/><stop stop-opacity="1" stop-color="rgb(57.632446%, 22.581482%, 98.579407%)" offset="0.0820312"/><stop stop-opacity="1" stop-color="rgb(57.406616%, 22.781372%, 98.512268%)" offset="0.0859375"/><stop stop-opacity="1" stop-color="rgb(57.17926%, 22.981262%, 98.445129%)" offset="0.0898438"/><stop stop-opacity="1" stop-color="rgb(56.951904%, 23.181152%, 98.377991%)" offset="0.09375"/><stop stop-opacity="1" stop-color="rgb(56.724548%, 23.379517%, 98.309326%)" offset="0.0976562"/><stop stop-opacity="1" stop-color="rgb(56.498718%, 23.579407%, 98.242188%)" offset="0.101562"/><stop stop-opacity="1" stop-color="rgb(56.271362%, 23.777771%, 98.173523%)" offset="0.105469"/><stop stop-opacity="1" stop-color="rgb(56.044006%, 23.977661%, 98.106384%)" offset="0.109375"/><stop stop-opacity="1" stop-color="rgb(55.81665%, 24.176025%, 98.039246%)" offset="0.113281"/><stop stop-opacity="1" stop-color="rgb(55.59082%, 24.375916%, 97.972107%)" offset="0.117188"/><stop stop-opacity="1" stop-color="rgb(55.363464%, 24.57428%, 97.903442%)" offset="0.121094"/><stop stop-opacity="1" stop-color="rgb(55.136108%, 24.77417%, 97.836304%)" offset="0.125"/><stop stop-opacity="1" stop-color="rgb(54.908752%, 24.972534%, 97.769165%)" offset="0.128906"/><stop stop-opacity="1" stop-color="rgb(54.682922%, 25.172424%, 97.702026%)" offset="0.132813"/><stop stop-opacity="1" stop-color="rgb(54.455566%, 25.370789%, 97.633362%)" offset="0.136719"/><stop stop-opacity="1" stop-color="rgb(54.22821%, 25.570679%, 97.566223%)" offset="0.140625"/><stop stop-opacity="1" stop-color="rgb(54.000854%, 25.769043%, 97.499084%)" offset="0.144531"/><stop stop-opacity="1" stop-color="rgb(53.775024%, 25.968933%, 97.431946%)" offset="0.148438"/><stop stop-opacity="1" stop-color="rgb(53.547668%, 26.168823%, 97.363281%)" offset="0.152344"/><stop stop-opacity="1" stop-color="rgb(53.321838%, 26.368713%, 97.296143%)" offset="0.15625"/><stop stop-opacity="1" stop-color="rgb(53.094482%, 26.567078%, 97.227478%)" offset="0.160156"/><stop stop-opacity="1" stop-color="rgb(52.867126%, 26.766968%, 97.160339%)" offset="0.164062"/><stop stop-opacity="1" stop-color="rgb(52.639771%, 26.965332%, 97.093201%)" offset="0.167969"/><stop stop-opacity="1" stop-color="rgb(52.41394%, 27.165222%, 97.026062%)" offset="0.171875"/><stop stop-opacity="1" stop-color="rgb(52.186584%, 27.363586%, 96.957397%)" offset="0.175781"/><stop stop-opacity="1" stop-color="rgb(51.959229%, 27.563477%, 96.890259%)" offset="0.179688"/><stop stop-opacity="1" stop-color="rgb(51.731873%, 27.761841%, 96.82312%)" offset="0.183594"/><stop stop-opacity="1" stop-color="rgb(51.506042%, 27.961731%, 96.755981%)" offset="0.1875"/><stop stop-opacity="1" stop-color="rgb(51.278687%, 28.160095%, 96.687317%)" offset="0.191406"/><stop stop-opacity="1" stop-color="rgb(51.051331%, 28.359985%, 96.620178%)" offset="0.195313"/><stop stop-opacity="1" stop-color="rgb(50.823975%, 28.55835%, 96.55304%)" offset="0.199219"/><stop stop-opacity="1" stop-color="rgb(50.598145%, 28.75824%, 96.485901%)" offset="0.203125"/><stop stop-opacity="1" stop-color="rgb(50.370789%, 28.956604%, 96.417236%)" offset="0.207031"/><stop stop-opacity="1" stop-color="rgb(50.143433%, 29.156494%, 96.350098%)" offset="0.210938"/><stop stop-opacity="1" stop-color="rgb(49.916077%, 29.354858%, 96.281433%)" offset="0.214844"/><stop stop-opacity="1" stop-color="rgb(49.690247%, 29.554749%, 96.214294%)" offset="0.21875"/><stop stop-opacity="1" stop-color="rgb(49.462891%, 29.754639%, 96.147156%)" offset="0.222656"/><stop stop-opacity="1" stop-color="rgb(49.235535%, 29.954529%, 96.080017%)" offset="0.226563"/><stop stop-opacity="1" stop-color="rgb(49.008179%, 30.152893%, 96.011353%)" offset="0.230469"/><stop stop-opacity="1" stop-color="rgb(48.782349%, 30.352783%, 95.944214%)" offset="0.234375"/><stop stop-opacity="1" stop-color="rgb(48.554993%, 30.551147%, 95.877075%)" offset="0.238281"/><stop stop-opacity="1" stop-color="rgb(48.327637%, 30.751038%, 95.809937%)" offset="0.242188"/><stop stop-opacity="1" stop-color="rgb(48.100281%, 30.949402%, 95.741272%)" offset="0.246094"/><stop stop-opacity="1" stop-color="rgb(47.874451%, 31.149292%, 95.674133%)" offset="0.25"/><stop stop-opacity="1" stop-color="rgb(47.647095%, 31.347656%, 95.605469%)" offset="0.253906"/><stop stop-opacity="1" stop-color="rgb(47.419739%, 31.547546%, 95.53833%)" offset="0.257812"/><stop stop-opacity="1" stop-color="rgb(47.192383%, 31.745911%, 95.471191%)" offset="0.261719"/><stop stop-opacity="1" stop-color="rgb(46.966553%, 31.945801%, 95.404053%)" offset="0.265625"/><stop stop-opacity="1" stop-color="rgb(46.739197%, 32.144165%, 95.335388%)" offset="0.269531"/><stop stop-opacity="1" stop-color="rgb(46.511841%, 32.344055%, 95.26825%)" offset="0.273437"/><stop stop-opacity="1" stop-color="rgb(46.284485%, 32.542419%, 95.201111%)" offset="0.277344"/><stop stop-opacity="1" stop-color="rgb(46.058655%, 32.74231%, 95.133972%)" offset="0.28125"/><stop stop-opacity="1" stop-color="rgb(45.831299%, 32.9422%, 95.065308%)" offset="0.285156"/><stop stop-opacity="1" stop-color="rgb(45.603943%, 33.14209%, 94.998169%)" offset="0.289062"/><stop stop-opacity="1" stop-color="rgb(45.376587%, 33.340454%, 94.93103%)" offset="0.292969"/><stop stop-opacity="1" stop-color="rgb(45.150757%, 33.540344%, 94.863892%)" offset="0.296875"/><stop stop-opacity="1" stop-color="rgb(44.923401%, 33.738708%, 94.795227%)" offset="0.300781"/><stop stop-opacity="1" stop-color="rgb(44.697571%, 33.938599%, 94.728088%)" offset="0.304687"/><stop stop-opacity="1" stop-color="rgb(44.470215%, 34.136963%, 94.659424%)" offset="0.308594"/><stop stop-opacity="1" stop-color="rgb(44.242859%, 34.336853%, 94.592285%)" offset="0.3125"/><stop stop-opacity="1" stop-color="rgb(44.015503%, 34.535217%, 94.525146%)" offset="0.316406"/><stop stop-opacity="1" stop-color="rgb(43.789673%, 34.735107%, 94.458008%)" offset="0.320312"/><stop stop-opacity="1" stop-color="rgb(43.562317%, 34.933472%, 94.389343%)" offset="0.324219"/><stop stop-opacity="1" stop-color="rgb(43.334961%, 35.133362%, 94.322205%)" offset="0.328125"/><stop stop-opacity="1" stop-color="rgb(43.107605%, 35.331726%, 94.255066%)" offset="0.332031"/><stop stop-opacity="1" stop-color="rgb(42.881775%, 35.531616%, 94.187927%)" offset="0.335937"/><stop stop-opacity="1" stop-color="rgb(42.654419%, 35.72998%, 94.119263%)" offset="0.339844"/><stop stop-opacity="1" stop-color="rgb(42.427063%, 35.929871%, 94.052124%)" offset="0.34375"/><stop stop-opacity="1" stop-color="rgb(42.199707%, 36.129761%, 93.984985%)" offset="0.347656"/><stop stop-opacity="1" stop-color="rgb(41.973877%, 36.329651%, 93.917847%)" offset="0.351562"/><stop stop-opacity="1" stop-color="rgb(41.746521%, 36.528015%, 93.849182%)" offset="0.355469"/><stop stop-opacity="1" stop-color="rgb(41.519165%, 36.727905%, 93.782043%)" offset="0.359375"/><stop stop-opacity="1" stop-color="rgb(41.291809%, 36.92627%, 93.713379%)" offset="0.363281"/><stop stop-opacity="1" stop-color="rgb(41.065979%, 37.12616%, 93.64624%)" offset="0.367188"/><stop stop-opacity="1" stop-color="rgb(40.838623%, 37.324524%, 93.579102%)" offset="0.371094"/><stop stop-opacity="1" stop-color="rgb(40.611267%, 37.524414%, 93.511963%)" offset="0.375"/><stop stop-opacity="1" stop-color="rgb(40.383911%, 37.722778%, 93.443298%)" offset="0.378906"/><stop stop-opacity="1" stop-color="rgb(40.158081%, 37.922668%, 93.37616%)" offset="0.382812"/><stop stop-opacity="1" stop-color="rgb(39.930725%, 38.121033%, 93.309021%)" offset="0.386719"/><stop stop-opacity="1" stop-color="rgb(39.703369%, 38.320923%, 93.241882%)" offset="0.390625"/><stop stop-opacity="1" stop-color="rgb(39.476013%, 38.519287%, 93.173218%)" offset="0.394531"/><stop stop-opacity="1" stop-color="rgb(39.250183%, 38.719177%, 93.106079%)" offset="0.398438"/><stop stop-opacity="1" stop-color="rgb(39.022827%, 38.917542%, 93.03894%)" offset="0.402344"/><stop stop-opacity="1" stop-color="rgb(38.795471%, 39.117432%, 92.971802%)" offset="0.40625"/><stop stop-opacity="1" stop-color="rgb(38.568115%, 39.315796%, 92.903137%)" offset="0.410156"/><stop stop-opacity="1" stop-color="rgb(38.342285%, 39.515686%, 92.835999%)" offset="0.414063"/><stop stop-opacity="1" stop-color="rgb(38.114929%, 39.715576%, 92.767334%)" offset="0.417969"/><stop stop-opacity="1" stop-color="rgb(37.887573%, 39.915466%, 92.700195%)" offset="0.421875"/><stop stop-opacity="1" stop-color="rgb(37.660217%, 40.113831%, 92.633057%)" offset="0.425781"/><stop stop-opacity="1" stop-color="rgb(37.434387%, 40.313721%, 92.565918%)" offset="0.429688"/><stop stop-opacity="1" stop-color="rgb(37.207031%, 40.512085%, 92.497253%)" offset="0.433594"/><stop stop-opacity="1" stop-color="rgb(36.981201%, 40.711975%, 92.430115%)" offset="0.4375"/><stop stop-opacity="1" stop-color="rgb(36.753845%, 40.910339%, 92.362976%)" offset="0.441406"/><stop stop-opacity="1" stop-color="rgb(36.526489%, 41.110229%, 92.295837%)" offset="0.445313"/><stop stop-opacity="1" stop-color="rgb(36.299133%, 41.308594%, 92.227173%)" offset="0.449219"/><stop stop-opacity="1" stop-color="rgb(36.073303%, 41.508484%, 92.160034%)" offset="0.453125"/><stop stop-opacity="1" stop-color="rgb(35.845947%, 41.706848%, 92.092896%)" offset="0.457031"/><stop stop-opacity="1" stop-color="rgb(35.618591%, 41.906738%, 92.025757%)" offset="0.460938"/><stop stop-opacity="1" stop-color="rgb(35.391235%, 42.105103%, 91.957092%)" offset="0.464844"/><stop stop-opacity="1" stop-color="rgb(35.165405%, 42.304993%, 91.889954%)" offset="0.46875"/><stop stop-opacity="1" stop-color="rgb(34.938049%, 42.503357%, 91.821289%)" offset="0.472656"/><stop stop-opacity="1" stop-color="rgb(34.710693%, 42.703247%, 91.75415%)" offset="0.476563"/><stop stop-opacity="1" stop-color="rgb(34.483337%, 42.903137%, 91.687012%)" offset="0.480469"/><stop stop-opacity="1" stop-color="rgb(34.257507%, 43.103027%, 91.619873%)" offset="0.484375"/><stop stop-opacity="1" stop-color="rgb(34.030151%, 43.301392%, 91.551208%)" offset="0.488281"/><stop stop-opacity="1" stop-color="rgb(33.802795%, 43.501282%, 91.48407%)" offset="0.492188"/><stop stop-opacity="1" stop-color="rgb(33.575439%, 43.699646%, 91.416931%)" offset="0.496094"/><stop stop-opacity="1" stop-color="rgb(33.349609%, 43.899536%, 91.349792%)" offset="0.5"/><stop stop-opacity="1" stop-color="rgb(33.122253%, 44.0979%, 91.281128%)" offset="0.503906"/><stop stop-opacity="1" stop-color="rgb(32.894897%, 44.297791%, 91.213989%)" offset="0.507812"/><stop stop-opacity="1" stop-color="rgb(32.667542%, 44.496155%, 91.145325%)" offset="0.511719"/><stop stop-opacity="1" stop-color="rgb(32.441711%, 44.696045%, 91.078186%)" offset="0.515625"/><stop stop-opacity="1" stop-color="rgb(32.214355%, 44.894409%, 91.011047%)" offset="0.519531"/><stop stop-opacity="1" stop-color="rgb(31.987%, 45.094299%, 90.943909%)" offset="0.523438"/><stop stop-opacity="1" stop-color="rgb(31.759644%, 45.292664%, 90.875244%)" offset="0.527344"/><stop stop-opacity="1" stop-color="rgb(31.533813%, 45.492554%, 90.808105%)" offset="0.53125"/><stop stop-opacity="1" stop-color="rgb(31.306458%, 45.690918%, 90.740967%)" offset="0.535156"/><stop stop-opacity="1" stop-color="rgb(31.079102%, 45.890808%, 90.673828%)" offset="0.539062"/><stop stop-opacity="1" stop-color="rgb(30.851746%, 46.090698%, 90.605164%)" offset="0.542969"/><stop stop-opacity="1" stop-color="rgb(30.625916%, 46.290588%, 90.538025%)" offset="0.546875"/><stop stop-opacity="1" stop-color="rgb(30.39856%, 46.488953%, 90.470886%)" offset="0.550781"/><stop stop-opacity="1" stop-color="rgb(30.171204%, 46.688843%, 90.403748%)" offset="0.554688"/><stop stop-opacity="1" stop-color="rgb(29.943848%, 46.887207%, 90.335083%)" offset="0.558594"/><stop stop-opacity="1" stop-color="rgb(29.718018%, 47.087097%, 90.267944%)" offset="0.5625"/><stop stop-opacity="1" stop-color="rgb(29.490662%, 47.285461%, 90.19928%)" offset="0.566406"/><stop stop-opacity="1" stop-color="rgb(29.264832%, 47.485352%, 90.132141%)" offset="0.570312"/><stop stop-opacity="1" stop-color="rgb(29.037476%, 47.683716%, 90.065002%)" offset="0.574219"/><stop stop-opacity="1" stop-color="rgb(28.81012%, 47.883606%, 89.997864%)" offset="0.578125"/><stop stop-opacity="1" stop-color="rgb(28.582764%, 48.08197%, 89.929199%)" offset="0.582031"/><stop stop-opacity="1" stop-color="rgb(28.356934%, 48.28186%, 89.862061%)" offset="0.585937"/><stop stop-opacity="1" stop-color="rgb(28.129578%, 48.480225%, 89.794922%)" offset="0.589844"/><stop stop-opacity="1" stop-color="rgb(27.902222%, 48.680115%, 89.727783%)" offset="0.59375"/><stop stop-opacity="1" stop-color="rgb(27.674866%, 48.878479%, 89.659119%)" offset="0.597656"/><stop stop-opacity="1" stop-color="rgb(27.449036%, 49.078369%, 89.59198%)" offset="0.601562"/><stop stop-opacity="1" stop-color="rgb(27.22168%, 49.276733%, 89.524841%)" offset="0.605469"/><stop stop-opacity="1" stop-color="rgb(26.994324%, 49.476624%, 89.457703%)" offset="0.609375"/><stop stop-opacity="1" stop-color="rgb(26.766968%, 49.676514%, 89.389038%)" offset="0.613281"/><stop stop-opacity="1" stop-color="rgb(26.541138%, 49.876404%, 89.321899%)" offset="0.617187"/><stop stop-opacity="1" stop-color="rgb(26.313782%, 50.074768%, 89.253235%)" offset="0.621094"/><stop stop-opacity="1" stop-color="rgb(26.086426%, 50.274658%, 89.186096%)" offset="0.625"/><stop stop-opacity="1" stop-color="rgb(25.85907%, 50.473022%, 89.118958%)" offset="0.628906"/><stop stop-opacity="1" stop-color="rgb(25.63324%, 50.672913%, 89.051819%)" offset="0.632812"/><stop stop-opacity="1" stop-color="rgb(25.405884%, 50.871277%, 88.983154%)" offset="0.636719"/><stop stop-opacity="1" stop-color="rgb(25.178528%, 51.071167%, 88.916016%)" offset="0.640625"/><stop stop-opacity="1" stop-color="rgb(24.951172%, 51.269531%, 88.848877%)" offset="0.644531"/><stop stop-opacity="1" stop-color="rgb(24.725342%, 51.469421%, 88.781738%)" offset="0.648437"/><stop stop-opacity="1" stop-color="rgb(24.497986%, 51.667786%, 88.713074%)" offset="0.652344"/><stop stop-opacity="1" stop-color="rgb(24.27063%, 51.867676%, 88.645935%)" offset="0.65625"/><stop stop-opacity="1" stop-color="rgb(24.043274%, 52.06604%, 88.578796%)" offset="0.660156"/><stop stop-opacity="1" stop-color="rgb(23.817444%, 52.26593%, 88.511658%)" offset="0.664062"/><stop stop-opacity="1" stop-color="rgb(23.590088%, 52.464294%, 88.442993%)" offset="0.667969"/><stop stop-opacity="1" stop-color="rgb(23.362732%, 52.664185%, 88.375854%)" offset="0.671875"/><stop stop-opacity="1" stop-color="rgb(23.135376%, 52.864075%, 88.30719%)" offset="0.675781"/><stop stop-opacity="1" stop-color="rgb(22.909546%, 53.063965%, 88.240051%)" offset="0.679687"/><stop stop-opacity="1" stop-color="rgb(22.68219%, 53.262329%, 88.172913%)" offset="0.683594"/><stop stop-opacity="1" stop-color="rgb(22.454834%, 53.462219%, 88.105774%)" offset="0.6875"/><stop stop-opacity="1" stop-color="rgb(22.227478%, 53.660583%, 88.037109%)" offset="0.691406"/><stop stop-opacity="1" stop-color="rgb(22.001648%, 53.860474%, 87.969971%)" offset="0.695312"/><stop stop-opacity="1" stop-color="rgb(21.774292%, 54.058838%, 87.902832%)" offset="0.699219"/><stop stop-opacity="1" stop-color="rgb(21.546936%, 54.258728%, 87.835693%)" offset="0.703125"/><stop stop-opacity="1" stop-color="rgb(21.31958%, 54.457092%, 87.767029%)" offset="0.707031"/><stop stop-opacity="1" stop-color="rgb(21.09375%, 54.656982%, 87.69989%)" offset="0.710938"/><stop stop-opacity="1" stop-color="rgb(20.866394%, 54.855347%, 87.632751%)" offset="0.714844"/><stop stop-opacity="1" stop-color="rgb(20.640564%, 55.055237%, 87.565613%)" offset="0.71875"/><stop stop-opacity="1" stop-color="rgb(20.413208%, 55.253601%, 87.496948%)" offset="0.722656"/><stop stop-opacity="1" stop-color="rgb(20.185852%, 55.453491%, 87.42981%)" offset="0.726562"/><stop stop-opacity="1" stop-color="rgb(19.958496%, 55.651855%, 87.361145%)" offset="0.730469"/><stop stop-opacity="1" stop-color="rgb(19.732666%, 55.851746%, 87.294006%)" offset="0.734375"/><stop stop-opacity="1" stop-color="rgb(19.50531%, 56.051636%, 87.226868%)" offset="0.738281"/><stop stop-opacity="1" stop-color="rgb(19.277954%, 56.251526%, 87.159729%)" offset="0.742188"/><stop stop-opacity="1" stop-color="rgb(19.050598%, 56.44989%, 87.091064%)" offset="0.746094"/><stop stop-opacity="1" stop-color="rgb(18.824768%, 56.64978%, 87.023926%)" offset="0.75"/><stop stop-opacity="1" stop-color="rgb(18.597412%, 56.848145%, 86.956787%)" offset="0.753906"/><stop stop-opacity="1" stop-color="rgb(18.370056%, 57.048035%, 86.889648%)" offset="0.757812"/><stop stop-opacity="1" stop-color="rgb(18.1427%, 57.246399%, 86.820984%)" offset="0.761719"/><stop stop-opacity="1" stop-color="rgb(17.91687%, 57.446289%, 86.753845%)" offset="0.765625"/><stop stop-opacity="1" stop-color="rgb(17.689514%, 57.644653%, 86.685181%)" offset="0.769531"/><stop stop-opacity="1" stop-color="rgb(17.462158%, 57.844543%, 86.618042%)" offset="0.773438"/><stop stop-opacity="1" stop-color="rgb(17.234802%, 58.042908%, 86.550903%)" offset="0.777344"/><stop stop-opacity="1" stop-color="rgb(17.008972%, 58.242798%, 86.483765%)" offset="0.78125"/><stop stop-opacity="1" stop-color="rgb(16.781616%, 58.441162%, 86.4151%)" offset="0.785156"/><stop stop-opacity="1" stop-color="rgb(16.55426%, 58.641052%, 86.347961%)" offset="0.789062"/><stop stop-opacity="1" stop-color="rgb(16.326904%, 58.839417%, 86.280823%)" offset="0.792969"/><stop stop-opacity="1" stop-color="rgb(16.101074%, 59.039307%, 86.213684%)" offset="0.796875"/><stop stop-opacity="1" stop-color="rgb(15.873718%, 59.237671%, 86.14502%)" offset="0.800781"/><stop stop-opacity="1" stop-color="rgb(15.646362%, 59.437561%, 86.077881%)" offset="0.804688"/><stop stop-opacity="1" stop-color="rgb(15.419006%, 59.637451%, 86.010742%)" offset="0.808594"/><stop stop-opacity="1" stop-color="rgb(15.193176%, 59.837341%, 85.943604%)" offset="0.8125"/><stop stop-opacity="1" stop-color="rgb(14.96582%, 60.035706%, 85.874939%)" offset="0.816406"/><stop stop-opacity="1" stop-color="rgb(14.738464%, 60.235596%, 85.8078%)" offset="0.820313"/><stop stop-opacity="1" stop-color="rgb(14.511108%, 60.43396%, 85.739136%)" offset="0.824219"/><stop stop-opacity="1" stop-color="rgb(14.285278%, 60.63385%, 85.671997%)" offset="0.828125"/><stop stop-opacity="1" stop-color="rgb(14.057922%, 60.832214%, 85.604858%)" offset="0.832031"/><stop stop-opacity="1" stop-color="rgb(13.830566%, 61.032104%, 85.53772%)" offset="0.835938"/><stop stop-opacity="1" stop-color="rgb(13.60321%, 61.230469%, 85.469055%)" offset="0.839844"/><stop stop-opacity="1" stop-color="rgb(13.37738%, 61.430359%, 85.401917%)" offset="0.84375"/><stop stop-opacity="1" stop-color="rgb(13.150024%, 61.628723%, 85.334778%)" offset="0.847656"/><stop stop-opacity="1" stop-color="rgb(12.924194%, 61.828613%, 85.267639%)" offset="0.851563"/><stop stop-opacity="1" stop-color="rgb(12.696838%, 62.026978%, 85.198975%)" offset="0.855469"/><stop stop-opacity="1" stop-color="rgb(12.469482%, 62.226868%, 85.131836%)" offset="0.859375"/><stop stop-opacity="1" stop-color="rgb(12.242126%, 62.425232%, 85.064697%)" offset="0.863281"/><stop stop-opacity="1" stop-color="rgb(12.016296%, 62.625122%, 84.997559%)" offset="0.867188"/><stop stop-opacity="1" stop-color="rgb(11.78894%, 62.825012%, 84.928894%)" offset="0.871094"/><stop stop-opacity="1" stop-color="rgb(11.561584%, 63.024902%, 84.861755%)" offset="0.875"/><stop stop-opacity="1" stop-color="rgb(11.334229%, 63.223267%, 84.793091%)" offset="0.878906"/><stop stop-opacity="1" stop-color="rgb(11.108398%, 63.423157%, 84.725952%)" offset="0.882813"/><stop stop-opacity="1" stop-color="rgb(10.881042%, 63.621521%, 84.658813%)" offset="0.886719"/><stop stop-opacity="1" stop-color="rgb(10.653687%, 63.821411%, 84.591675%)" offset="0.890625"/><stop stop-opacity="1" stop-color="rgb(10.426331%, 64.019775%, 84.52301%)" offset="0.894531"/><stop stop-opacity="1" stop-color="rgb(10.2005%, 64.219666%, 84.455872%)" offset="0.898438"/><stop stop-opacity="1" stop-color="rgb(9.973145%, 64.41803%, 84.388733%)" offset="0.902344"/><stop stop-opacity="1" stop-color="rgb(9.745789%, 64.61792%, 84.321594%)" offset="0.90625"/><stop stop-opacity="1" stop-color="rgb(9.518433%, 64.816284%, 84.25293%)" offset="0.910156"/><stop stop-opacity="1" stop-color="rgb(9.292603%, 65.016174%, 84.185791%)" offset="0.914063"/><stop stop-opacity="1" stop-color="rgb(9.065247%, 65.214539%, 84.118652%)" offset="0.917969"/><stop stop-opacity="1" stop-color="rgb(8.837891%, 65.414429%, 84.051514%)" offset="0.921875"/><stop stop-opacity="1" stop-color="rgb(8.610535%, 65.612793%, 83.982849%)" offset="0.925781"/><stop stop-opacity="1" stop-color="rgb(8.384705%, 65.812683%, 83.91571%)" offset="0.929688"/><stop stop-opacity="1" stop-color="rgb(8.157349%, 66.012573%, 83.847046%)" offset="0.933594"/><stop stop-opacity="1" stop-color="rgb(7.929993%, 66.212463%, 83.779907%)" offset="0.9375"/><stop stop-opacity="1" stop-color="rgb(7.702637%, 66.410828%, 83.712769%)" offset="0.941406"/><stop stop-opacity="1" stop-color="rgb(7.476807%, 66.610718%, 83.64563%)" offset="0.945312"/><stop stop-opacity="1" stop-color="rgb(7.249451%, 66.809082%, 83.576965%)" offset="0.949219"/><stop stop-opacity="1" stop-color="rgb(7.022095%, 67.008972%, 83.509827%)" offset="0.953125"/><stop stop-opacity="1" stop-color="rgb(6.794739%, 67.207336%, 83.442688%)" offset="0.957031"/><stop stop-opacity="1" stop-color="rgb(6.568909%, 67.407227%, 83.375549%)" offset="0.960938"/><stop stop-opacity="1" stop-color="rgb(6.341553%, 67.605591%, 83.306885%)" offset="0.964844"/><stop stop-opacity="1" stop-color="rgb(6.114197%, 67.805481%, 83.239746%)" offset="0.96875"/><stop stop-opacity="1" stop-color="rgb(5.886841%, 68.003845%, 83.171082%)" offset="0.972656"/><stop stop-opacity="1" stop-color="rgb(5.661011%, 68.203735%, 83.103943%)" offset="0.976562"/><stop stop-opacity="1" stop-color="rgb(5.433655%, 68.4021%, 83.036804%)" offset="0.980469"/><stop stop-opacity="1" stop-color="rgb(5.206299%, 68.60199%, 82.969666%)" offset="0.984375"/><stop stop-opacity="1" stop-color="rgb(4.978943%, 68.800354%, 82.901001%)" offset="0.988281"/><stop stop-opacity="1" stop-color="rgb(4.753113%, 69.000244%, 82.833862%)" offset="0.992188"/><stop stop-opacity="1" stop-color="rgb(4.525757%, 69.198608%, 82.766724%)" offset="0.996094"/><stop stop-opacity="1" stop-color="rgb(4.299927%, 69.398499%, 82.699585%)" offset="1"/></linearGradient></defs><g clip-path="url(#fb6d7a7f71)"><g clip-path="url(#9031a51295)"><path fill="url(#4d7f30b2da)" d="M 68 0 L 68 674 L 742 674 L 742 0 Z M 68 0 " fill-rule="nonzero"/></g></g></svg>