<svg xmlns="http://www.w3.org/2000/svg" xmlns:xlink="http://www.w3.org/1999/xlink" width="1080" zoomAndPan="magnify" viewBox="0 0 810 675.000002" height="900" preserveAspectRatio="xMidYMid meet" version="1.0"><defs><clipPath id="7ddcad69dc"><path d="M 68 0 L 742 0 L 742 674 L 68 674 Z M 68 0 " clip-rule="nonzero"/></clipPath><clipPath id="12090f447f"><path d="M 470.226562 271.773438 C 470.226562 277.777344 465.355469 282.644531 459.355469 282.644531 C 453.355469 282.644531 448.484375 277.777344 448.484375 271.773438 C 448.484375 265.773438 453.355469 260.902344 459.355469 260.902344 C 465.355469 260.902344 470.226562 265.773438 470.226562 271.773438 Z M 350.644531 260.902344 C 344.644531 260.902344 339.773438 265.773438 339.773438 271.773438 C 339.773438 277.777344 344.644531 282.644531 350.644531 282.644531 C 356.644531 282.644531 361.515625 277.777344 361.515625 271.773438 C 361.515625 265.773438 356.644531 260.902344 350.644531 260.902344 Z M 415.871094 290.953125 L 415.871094 271.773438 L 394.128906 271.773438 L 394.128906 293.515625 C 394.128906 295.203125 394.519531 296.875 395.269531 298.375 L 401.28125 310.386719 L 389.269531 316.398438 L 399 335.847656 L 411.011719 329.835938 C 416.207031 327.238281 420.078125 322.78125 421.914062 317.269531 C 423.753906 311.757812 423.328125 305.855469 420.742188 300.667969 Z M 568.066406 206.550781 L 568.066406 239.445312 C 581.1875 249.378906 589.808594 264.96875 589.808594 282.644531 C 589.808594 312.617188 565.421875 337 535.453125 337 L 523.167969 337 C 517.796875 371.429688 496.402344 401.292969 464.484375 417.25 L 459.332031 419.816406 L 459.332031 436.566406 C 493.152344 443.949219 600.679688 481.726562 600.679688 663.128906 L 600.679688 674 L 209.320312 674 L 209.320312 663.128906 C 209.320312 481.726562 316.835938 443.949219 350.644531 436.566406 L 350.644531 423.96875 L 307.160156 423.96875 C 271.1875 423.96875 241.933594 394.714844 241.933594 358.742188 L 241.933594 325.847656 C 228.8125 315.910156 220.191406 300.320312 220.191406 282.644531 C 220.191406 264.96875 228.8125 249.371094 241.933594 239.445312 L 241.933594 206.550781 C 241.933594 116.636719 315.085938 43.484375 405 43.484375 C 494.914062 43.484375 568.066406 116.636719 568.066406 206.550781 Z M 263.675781 229.390625 C 267.1875 228.671875 270.832031 228.289062 274.546875 228.289062 L 285.417969 228.289062 L 285.417969 206.550781 C 285.417969 140.617188 339.066406 86.96875 405 86.96875 C 470.933594 86.96875 524.582031 140.617188 524.582031 206.550781 L 524.582031 228.289062 L 535.453125 228.289062 C 539.167969 228.289062 542.8125 228.671875 546.324219 229.390625 L 546.324219 206.550781 C 546.324219 128.625 482.921875 65.226562 405 65.226562 C 327.078125 65.226562 263.675781 128.625 263.675781 206.550781 Z M 393.792969 167.445312 L 390.238281 179.589844 C 387.519531 188.90625 383.433594 197.558594 378.277344 205.429688 C 395.78125 213.167969 414.707031 217.417969 433.882812 217.417969 L 497.828125 217.417969 C 489.488281 201.796875 474.53125 190.230469 456.757812 186.675781 L 446.351562 184.601562 L 450.625 163.28125 L 461.027344 165.359375 C 476.085938 168.378906 489.683594 175.621094 500.578125 185.761719 C 491 141.769531 451.808594 108.710938 405 108.710938 C 351.058594 108.710938 307.160156 152.597656 307.160156 206.550781 L 307.160156 227.386719 C 336.207031 223.128906 360.984375 202.234375 369.375 173.5 L 372.929688 161.359375 Z M 241.933594 282.644531 C 241.933594 300.625 256.566406 315.257812 274.546875 315.257812 L 285.410156 315.257812 L 285.417969 250.03125 L 274.546875 250.03125 C 256.566406 250.03125 241.933594 264.664062 241.933594 282.644531 Z M 307.160156 402.226562 L 322.96875 402.226562 C 303.519531 385.429688 290.875 362.308594 286.886719 337 L 274.546875 337 C 270.832031 337 267.1875 336.621094 263.675781 335.902344 L 263.675781 358.742188 C 263.675781 382.722656 283.179688 402.226562 307.160156 402.226562 Z M 394.128906 402.226562 C 400.117188 402.226562 405 397.355469 405 391.355469 C 405 385.355469 400.117188 380.484375 394.128906 380.484375 L 361.515625 380.484375 C 355.527344 380.484375 350.644531 385.355469 350.644531 391.355469 L 350.644531 402.226562 Z M 231.195312 652.257812 L 307.433594 652.257812 C 300.539062 643.148438 296.289062 631.929688 296.289062 619.648438 L 296.289062 532.679688 C 296.289062 502.707031 320.671875 478.324219 350.644531 478.324219 L 386.878906 478.324219 L 358.503906 457.039062 C 337.023438 460.386719 235.421875 485.074219 231.195312 652.257812 Z M 491.96875 532.679688 C 491.96875 514.699219 477.335938 500.066406 459.355469 500.066406 L 350.644531 500.066406 C 332.664062 500.066406 318.03125 514.699219 318.03125 532.679688 L 318.03125 608.777344 L 491.96875 608.777344 Z M 459.355469 652.257812 C 473.507812 652.257812 485.46875 643.140625 489.96875 630.515625 L 320.03125 630.515625 C 324.53125 643.140625 336.492188 652.257812 350.644531 652.257812 Z M 451.484375 457.050781 L 423.121094 478.324219 L 459.355469 478.324219 C 489.328125 478.324219 513.710938 502.707031 513.710938 532.679688 L 513.710938 619.648438 C 513.710938 631.929688 509.460938 643.148438 502.554688 652.257812 L 578.792969 652.257812 C 574.566406 485.152344 473.042969 460.410156 451.484375 457.050781 Z M 502.839844 320.007812 L 502.839844 239.160156 L 433.882812 239.160156 C 409.523438 239.160156 385.398438 233.476562 363.558594 222.746094 C 348.285156 237.25 328.632812 246.988281 307.160156 249.425781 L 307.160156 250.03125 L 307.148438 320.007812 C 307.148438 342.597656 315.921875 363.863281 331.121094 379.832031 C 335.785156 367.539062 347.601562 358.742188 361.515625 358.742188 L 394.128906 358.742188 C 412.109375 358.742188 426.742188 373.375 426.742188 391.355469 C 426.742188 409.335938 412.109375 423.96875 394.128906 423.96875 L 372.386719 423.96875 L 372.386719 440.273438 L 405 464.734375 L 437.632812 440.265625 L 437.613281 419.816406 C 437.613281 411.511719 442.222656 404.0625 449.636719 400.367188 L 454.777344 397.800781 C 484.433594 382.972656 502.851562 353.164062 502.839844 320.007812 Z M 568.066406 282.644531 C 568.066406 264.664062 553.433594 250.03125 535.453125 250.03125 L 524.582031 250.03125 L 524.582031 315.257812 L 535.453125 315.257812 C 553.433594 315.257812 568.066406 300.625 568.066406 282.644531 Z M 437.613281 554.421875 C 437.613281 572.402344 422.980469 587.035156 405 587.035156 C 387.019531 587.035156 372.386719 572.402344 372.386719 554.421875 C 372.386719 536.441406 387.019531 521.808594 405 521.808594 C 422.980469 521.808594 437.613281 536.441406 437.613281 554.421875 Z M 415.871094 554.421875 C 415.871094 548.417969 410.988281 543.550781 405 543.550781 C 399.011719 543.550781 394.128906 548.417969 394.128906 554.421875 C 394.128906 560.421875 399.011719 565.292969 405 565.292969 C 410.988281 565.292969 415.871094 560.421875 415.871094 554.421875 Z M 80.195312 473.269531 C 72.324219 465.417969 68 454.972656 68 443.839844 C 68 420.902344 86.664062 402.226562 109.625 402.226562 C 118.167969 402.226562 126.332031 404.78125 133.226562 409.554688 C 140.117188 404.78125 148.269531 402.226562 156.816406 402.226562 C 179.773438 402.226562 198.449219 420.902344 198.449219 443.839844 C 198.449219 454.960938 194.125 465.410156 186.253906 473.269531 L 159.46875 500.066406 C 152.46875 507.078125 143.152344 510.9375 133.226562 510.9375 C 123.300781 510.9375 113.984375 507.078125 106.972656 500.066406 Z M 89.742188 443.839844 C 89.742188 449.070312 91.859375 454.191406 95.558594 457.898438 L 122.355469 484.695312 C 128.160156 490.511719 138.292969 490.511719 144.097656 484.695312 L 170.894531 457.898438 C 174.589844 454.191406 176.710938 449.082031 176.710938 443.839844 C 176.710938 432.882812 167.796875 423.96875 156.824219 423.96875 C 151.519531 423.96875 146.53125 426.035156 142.769531 429.785156 L 133.226562 439.328125 L 123.667969 429.773438 C 119.917969 426.035156 114.929688 423.96875 109.636719 423.96875 C 98.667969 423.96875 89.742188 432.882812 89.742188 443.839844 Z M 241.933594 86.96875 C 241.933594 134.917969 202.917969 173.9375 154.96875 173.9375 C 107.015625 173.9375 68 134.917969 68 86.96875 C 68 39.015625 107.015625 0 154.96875 0 C 202.917969 0 241.933594 39.015625 241.933594 86.96875 Z M 154.96875 86.96875 C 160.957031 86.96875 165.839844 82.097656 165.839844 76.097656 C 165.839844 70.097656 160.957031 65.226562 154.96875 65.226562 C 148.976562 65.226562 144.097656 70.097656 144.097656 76.097656 C 144.097656 82.097656 148.976562 86.96875 154.96875 86.96875 Z M 154.96875 152.195312 C 162.597656 152.195312 169.894531 150.800781 176.710938 148.390625 L 176.710938 130.453125 C 176.710938 118.460938 166.957031 108.710938 154.96875 108.710938 C 142.976562 108.710938 133.226562 118.460938 133.226562 130.453125 L 133.226562 148.390625 C 140.042969 150.800781 147.335938 152.195312 154.96875 152.195312 Z M 220.191406 86.96875 C 220.191406 50.996094 190.9375 21.742188 154.96875 21.742188 C 118.996094 21.742188 89.742188 50.996094 89.742188 86.96875 C 89.742188 106.21875 98.175781 123.496094 111.484375 135.453125 L 111.484375 130.453125 C 111.484375 116.199219 118.460938 103.65625 129.082031 95.71875 C 124.917969 90.238281 122.355469 83.488281 122.355469 76.097656 C 122.355469 58.117188 136.988281 43.484375 154.96875 43.484375 C 172.949219 43.484375 187.582031 58.117188 187.582031 76.097656 C 187.582031 83.488281 185.015625 90.238281 180.851562 95.71875 C 191.472656 103.65625 198.449219 116.199219 198.449219 130.453125 L 198.449219 135.453125 C 211.757812 123.496094 220.191406 106.21875 220.191406 86.96875 Z M 742 413.097656 L 742 543.550781 C 742 561.53125 727.367188 576.164062 709.386719 576.164062 L 644.160156 576.164062 C 626.179688 576.164062 611.546875 561.53125 611.546875 543.550781 L 611.546875 413.097656 C 611.546875 395.117188 626.179688 380.484375 644.160156 380.484375 L 709.386719 380.484375 C 727.367188 380.484375 742 395.117188 742 413.097656 Z M 633.289062 413.097656 L 633.289062 423.96875 L 720.257812 423.96875 L 720.257812 413.097656 C 720.257812 407.097656 715.378906 402.226562 709.386719 402.226562 L 644.160156 402.226562 C 638.171875 402.226562 633.289062 407.097656 633.289062 413.097656 Z M 633.289062 445.710938 L 633.289062 510.9375 L 720.257812 510.9375 L 720.257812 445.710938 Z M 720.257812 543.550781 L 720.257812 532.679688 L 633.289062 532.679688 L 633.289062 543.550781 C 633.289062 549.550781 638.171875 554.421875 644.160156 554.421875 L 709.386719 554.421875 C 715.378906 554.421875 720.257812 549.550781 720.257812 543.550781 Z M 742 86.96875 C 742 134.917969 702.984375 173.9375 655.03125 173.9375 C 607.082031 173.9375 568.066406 134.917969 568.066406 86.96875 C 568.066406 39.015625 607.082031 0 655.03125 0 C 702.984375 0 742 39.015625 742 86.96875 Z M 655.03125 21.742188 C 652.988281 21.742188 650.96875 21.863281 648.964844 22.046875 L 655.933594 29.015625 C 662.273438 35.351562 665.902344 44.125 665.902344 53.070312 L 665.902344 59.410156 C 665.902344 64.703125 669.285156 69.390625 674.308594 71.0625 C 679.535156 72.824219 685.351562 70.824219 688.40625 66.226562 L 693.460938 58.636719 C 696.800781 53.625 701.375 49.777344 706.582031 47.167969 C 694.65625 31.734375 676.015625 21.742188 655.03125 21.742188 Z M 655.03125 152.195312 L 655.03125 146.453125 C 655.03125 144.78125 654.628906 143.09375 653.890625 141.605469 L 649.347656 132.507812 C 648.054688 129.917969 645.8125 127.972656 643.054688 127.050781 L 633.855469 123.984375 C 620.507812 119.527344 611.546875 107.101562 611.546875 93.042969 L 611.546875 79.945312 C 611.546875 75.476562 608.863281 71.507812 604.710938 69.847656 L 593.546875 65.378906 C 591.164062 72.152344 589.808594 79.402344 589.808594 86.96875 C 589.808594 122.941406 619.0625 152.195312 655.03125 152.195312 Z M 720.257812 86.96875 C 720.257812 79.75 719.03125 72.824219 716.855469 66.335938 C 714.746094 67.257812 712.878906 68.703125 711.5625 70.695312 L 706.507812 78.28125 C 700.082031 87.925781 689.296875 93.425781 678.144531 93.425781 C 674.566406 93.425781 670.957031 92.859375 667.4375 91.6875 C 653.511719 87.042969 644.160156 74.0625 644.160156 59.410156 L 644.160156 53.070312 C 644.160156 49.84375 642.847656 46.679688 640.5625 44.386719 L 625.203125 29.027344 C 617.050781 33.242188 609.886719 39.113281 604.179688 46.210938 L 612.789062 49.660156 C 625.246094 54.648438 633.289062 66.53125 633.289062 79.945312 L 633.289062 93.035156 C 633.289062 97.71875 636.28125 101.871094 640.726562 103.351562 L 649.921875 106.425781 C 658.195312 109.175781 664.882812 114.992188 668.785156 122.777344 L 673.328125 131.875 C 675.589844 136.375 676.773438 141.421875 676.773438 146.453125 L 676.773438 148.390625 C 702.070312 139.410156 720.257812 115.308594 720.257812 86.96875 Z M 655.03125 195.679688 L 655.03125 250.03125 L 611.546875 250.03125 L 611.546875 271.773438 L 676.773438 271.773438 L 676.773438 195.679688 Z M 198.449219 250.03125 L 165.839844 250.03125 L 165.839844 195.679688 L 144.097656 195.679688 L 144.097656 271.773438 L 198.449219 271.773438 Z M 122.355469 380.484375 L 144.097656 380.484375 L 144.097656 315.257812 L 198.449219 315.257812 L 198.449219 293.515625 L 122.355469 293.515625 Z M 611.546875 315.257812 L 665.902344 315.257812 L 665.902344 358.742188 L 687.644531 358.742188 L 687.644531 293.515625 L 611.546875 293.515625 Z M 611.546875 315.257812 " clip-rule="nonzero"/></clipPath></defs><g clip-path="url(#7ddcad69dc)"><g clip-path="url(#12090f447f)"><path fill="#ffffff" d="M 68 0 L 68 674 L 742 674 L 742 0 Z M 68 0 " fill-opacity="1" fill-rule="nonzero"/></g></g></svg>